<?xml version="1.0" standalone="no"?><!DOCTYPE svg PUBLIC "-//W3C//DTD SVG 1.1//EN" "http://www.w3.org/Graphics/SVG/1.1/DTD/svg11.dtd"><svg t="1745758635586" class="icon" viewBox="0 0 1024 1024" version="1.1" xmlns="http://www.w3.org/2000/svg" p-id="1477" width="48" height="48" xmlns:xlink="http://www.w3.org/1999/xlink"><path d="M1013.333333 512c0 276.885333-224.448 501.333333-501.333333 501.333333S10.666667 788.885333 10.666667 512 235.114667 10.666667 512 10.666667 1013.333333 235.114667 1013.333333 512z" fill="#D2EEFF" p-id="1478"></path><path d="M512 21.333333C241.002667 21.333333 21.333333 241.002667 21.333333 512s219.669333 490.666667 490.666667 490.666667 490.666667-219.669333 490.666667-490.666667S782.997333 21.333333 512 21.333333zM0 512C0 229.226667 229.226667 0 512 0s512 229.226667 512 512-229.226667 512-512 512S0 794.773333 0 512z" fill="#6C9FDA" p-id="1479"></path><path d="M426.666667 501.333333h245.333333v21.333334H426.666667v-21.333334z" fill="#154EAA" p-id="1480"></path><path d="M501.333333 757.333333h-256v-448h256v448z" fill="#FFFFFF" p-id="1481"></path><path d="M234.666667 298.666667h277.333333v469.333333H234.666667V298.666667z m21.333333 21.333333v426.666667h234.666667V320H256z" fill="#154EAA" p-id="1482"></path><path d="M298.666667 373.333333h149.333333v21.333334h-149.333333v-21.333334zM298.666667 426.666667h149.333333v21.333333h-149.333333v-21.333333zM426.666667 480h21.333333v21.333333h-21.333333v-21.333333zM384 480h21.333333v21.333333h-21.333333v-21.333333zM341.333333 480h21.333334v21.333333h-21.333334v-21.333333zM298.666667 480h21.333333v21.333333h-21.333333v-21.333333zM298.666667 682.666667h149.333333v21.333333h-149.333333v-21.333333zM668.224 328.149333l-70.250667 59.52a32 32 0 0 0-11.306666 24.405334v200.106666c0 9.429333 4.16 18.368 11.370666 24.448l70.186667 59.221334-13.76 16.298666-70.186667-59.2a53.333333 53.333333 0 0 1-18.944-40.768v-200.106666a53.333333 53.333333 0 0 1 18.858667-40.682667l70.250667-59.52 13.781333 16.277333z" fill="#154EAA" p-id="1483"></path><path d="M716.437333 760.896a49.770667 49.770667 0 1 0 0-99.562667 49.770667 49.770667 0 0 0 0 99.562667z" fill="#FFFFFF" p-id="1484"></path><path d="M656 711.104a60.437333 60.437333 0 1 1 120.896 0 60.437333 60.437333 0 0 1-120.896 0z m60.437333-39.104a39.104 39.104 0 1 0 0 78.229333 39.104 39.104 0 0 0 0-78.229333z" fill="#154EAA" p-id="1485"></path><path d="M716.437333 561.770667a49.770667 49.770667 0 1 0 0-99.541334 49.770667 49.770667 0 0 0 0 99.541334z" fill="#154EAA" p-id="1486"></path><path d="M656 512a60.437333 60.437333 0 1 1 120.896 0 60.437333 60.437333 0 0 1-120.896 0z m60.437333-39.104a39.104 39.104 0 1 0 0 78.208 39.104 39.104 0 0 0 0-78.208z" fill="#154EAA" p-id="1487"></path><path d="M716.437333 362.666667a49.770667 49.770667 0 1 0 0-99.562667 49.770667 49.770667 0 0 0 0 99.562667z" fill="#FFFFFF" p-id="1488"></path><path d="M656 312.896a60.437333 60.437333 0 1 1 120.896 0 60.437333 60.437333 0 0 1-120.896 0z m60.437333-39.125333a39.104 39.104 0 1 0 0 78.229333 39.104 39.104 0 0 0 0-78.229333z" fill="#154EAA" p-id="1489"></path></svg>